<svg width="148" height="94" viewBox="0 0 148 94" fill="none" xmlns="http://www.w3.org/2000/svg">
<path d="M7.24 78.688C5.36267 78.688 3.82667 79.5413 2.632 81.248C1.43733 82.9547 0.84 85.0027 0.84 87.392C0.84 89.0987 1.224 90.464 1.992 91.488C2.84533 92.4267 3.95467 92.896 5.32 92.896C7.19733 92.896 8.73333 92.0427 9.928 90.336C11.1227 88.6293 11.72 86.5813 11.72 84.192C11.72 82.4853 11.2933 81.1627 10.44 80.224C9.672 79.2 8.60533 78.688 7.24 78.688ZM64.785 1.504C66.1503 1.16266 67.3023 0.991997 68.241 0.991997C69.009 0.991997 69.521 1.20533 69.777 1.632C70.033 1.97333 70.1183 2.656 70.033 3.67999C67.1317 23.8187 65.041 38.7093 63.761 48.352C62.481 57.9093 61.585 65.76 61.073 71.904C60.3903 79.6693 60.049 85.5573 60.049 89.568C60.049 90.7627 59.8357 91.488 59.409 91.744C59.0677 92 58.257 92.2987 56.977 92.64C55.953 92.8107 55.313 92.896 55.057 92.896C54.033 92.896 53.3503 92.5547 53.009 91.872C52.6677 91.1893 52.5397 89.952 52.625 88.16C52.625 86.624 52.753 84.6613 53.009 82.272C51.3877 85.6853 49.2543 88.3733 46.609 90.336C44.049 92.2987 41.105 93.28 37.777 93.28C33.681 93.1947 30.3957 91.1893 27.921 87.264C25.5317 83.3387 24.337 77.92 24.337 71.008C24.4223 64.608 25.361 58.6347 27.153 53.088C28.945 47.456 31.5477 42.976 34.961 39.648C38.4597 36.2347 42.641 34.528 47.505 34.528C51.0037 34.528 54.4597 35.5947 57.873 37.728C59.409 25.952 60.7317 15.328 61.841 5.856C62.0117 4.23466 62.2677 3.168 62.609 2.656C63.0357 2.14399 63.761 1.75999 64.785 1.504ZM56.977 44.768C55.3557 43.744 53.8623 43.0187 52.497 42.592C51.217 42.08 49.7663 41.824 48.145 41.824C44.2197 41.824 41.0623 43.488 38.673 46.816C36.2837 50.144 34.577 54.0267 33.553 58.464C32.6143 62.9013 32.1023 66.9973 32.017 70.752C32.017 80.736 34.705 85.728 40.081 85.728C43.5797 85.728 46.737 83.296 49.553 78.432C52.369 73.568 54.161 67.7653 54.929 61.024L56.977 44.768ZM96.398 34.272C100.835 34.3573 104.334 36.32 106.894 40.16C109.539 43.9147 110.905 48.5227 110.99 53.984C110.99 61.2373 110.094 67.8507 108.302 73.824C106.51 79.712 103.822 84.448 100.238 88.032C96.654 91.5307 92.2593 93.28 87.054 93.28C82.6167 93.1947 79.0753 91.2747 76.43 87.52C73.87 83.68 72.5473 79.0293 72.462 73.568C72.462 66.3147 73.358 59.744 75.15 53.856C76.942 47.8827 79.63 43.1467 83.214 39.648C86.798 36.064 91.1927 34.272 96.398 34.272ZM87.694 85.984C91.534 85.984 94.606 84.2347 96.91 80.736C99.2993 77.2373 100.963 73.184 101.902 68.576C102.926 63.8827 103.438 59.616 103.438 55.776C103.438 51.5093 102.798 48.1387 101.518 45.664C100.238 43.104 98.318 41.824 95.758 41.824C91.918 41.824 88.8033 43.5733 86.414 47.072C84.11 50.4853 82.446 54.496 81.422 59.104C80.4833 63.712 80.014 67.936 80.014 71.776C80.014 76.0427 80.654 79.4987 81.934 82.144C83.214 84.704 85.134 85.984 87.694 85.984ZM144.446 35.296C145.641 35.296 146.451 35.424 146.878 35.68C147.305 35.936 147.518 36.3627 147.518 36.96C147.518 37.6427 147.433 38.24 147.262 38.752C146.835 40.2027 146.281 41.1413 145.598 41.568C145.001 41.9947 143.763 42.208 141.886 42.208H133.694C131.049 59.7013 129.726 71.6907 129.726 78.176C129.726 80.6507 130.025 82.5707 130.622 83.936C131.219 85.3013 132.286 85.984 133.822 85.984C135.699 85.984 137.662 85.1307 139.71 83.424C140.478 82.7413 141.118 82.4 141.63 82.4C142.313 82.4 143.123 82.9973 144.062 84.192C144.489 84.704 144.83 85.216 145.086 85.728C145.427 86.1547 145.598 86.5387 145.598 86.88C145.598 87.392 145.129 88.0747 144.19 88.928C140.606 91.8293 136.851 93.28 132.926 93.28C129.001 93.1947 126.227 91.872 124.606 89.312C123.07 86.752 122.259 83.296 122.174 78.944C122.174 71.52 123.497 59.2747 126.142 42.208H120.126C118.59 42.208 117.523 42.08 116.926 41.824C116.329 41.568 116.03 41.056 116.03 40.288C116.03 39.776 116.158 39.0933 116.414 38.24C116.755 36.8747 117.225 36.064 117.822 35.808C118.505 35.4667 119.827 35.296 121.79 35.296H127.294L130.878 14.432C131.049 12.7253 131.305 11.6587 131.646 11.232C132.073 10.72 132.841 10.336 133.95 10.08C135.998 9.73866 137.065 9.56799 137.15 9.56799C137.918 9.56799 138.387 9.78133 138.558 10.208C138.729 10.5493 138.729 11.2747 138.558 12.384C137.278 19.8933 135.998 27.5307 134.718 35.296H144.446Z" fill="black"/>
</svg>
